# xmcd
#
# Track frame offsets: 
#        150
#        12179
#        28802
#        48433
#        66930
#        82739
#        98868
#        116172
#        138728
#        155259
#        177922
#
# Disc length: 2620 seconds
#
# Revision: 0
# Processed by: cddbd v1.4PL0 Copyright (c) Steve Scherf et al.
# Submitted via: ExactAudioCopy v0.90b4
#
DISCID=8d0a3a0b
DTITLE=Jitka Vrbova and Akaty - Jitka Vrbova and Akaty
DYEAR=1900
DGENRE=
TTITLE0=Den zacina krasne
TTITLE1=Cekej tise
TTITLE2=Nejsem zadna triska
TTITLE3=Jen ty ma Sazavo
TTITLE4=Bila plaz
TTITLE5=Kamaradi jeste na to mame
TTITLE6=Nad ranem
TTITLE7=Jizni kriz
TTITLE8=Laska lehkomyslna
TTITLE9=Za velkou louzi
TTITLE10=Slecna Albina
EXTD=
EXTT0=
EXTT1=
EXTT2=
EXTT3=
EXTT4=
EXTT5=
EXTT6=
EXTT7=
EXTT8=
EXTT9=
EXTT10=
PLAYORDER=
